<svg width="131" height="53" viewBox="0 0 131 53" fill="none" xmlns="http://www.w3.org/2000/svg">
<path fill-rule="evenodd" clip-rule="evenodd" d="M28.6069 23.5711L26.9346 20.6279L25.2623 23.5711H22.3359L23.7991 26.1463L22.336 28.7215H25.2623L26.9346 31.6647L28.6068 28.7215H31.5332L30.07 26.1463L31.5332 23.5711H28.6069Z" fill="#E52C36"></path>
<path fill-rule="evenodd" clip-rule="evenodd" d="M26.4816 8.54147C23.3362 8.50532 20.2377 9.30632 17.5038 10.8623C14.77 12.4184 12.4991 14.6734 10.924 17.3963C9.34894 20.1193 8.52631 23.2121 8.54047 26.3577C8.55464 29.5033 9.40508 32.5886 11.0046 35.2972C12.6042 38.0058 14.8952 40.2404 17.643 41.7717C20.3908 43.303 23.4963 44.0761 26.6413 44.0116C29.7863 43.9472 32.8576 43.0475 35.5403 41.4049L40 48.6882C36.0256 51.1218 31.4756 52.4546 26.8163 52.5501C22.1571 52.6456 17.5562 51.5004 13.4855 49.2317C9.41474 46.9631 6.02054 43.6526 3.65085 39.6399C1.28116 35.6271 0.0212465 31.0563 0.000266372 26.3961C-0.0207138 21.7359 1.198 17.154 3.53146 13.1201C5.86492 9.08611 9.22918 5.74528 13.2793 3.44007C17.3295 1.13485 21.9198 -0.0518104 26.5798 0.00173508C31.2397 0.0552805 35.8015 1.34711 39.7977 3.74478L35.4037 11.068C32.7063 9.44959 29.6271 8.57761 26.4816 8.54147Z" fill="#E52C36"></path>
<path fill-rule="evenodd" clip-rule="evenodd" d="M22.8476 19.9172C21.9971 20.3758 21.2472 21.0004 20.6423 21.7539C20.0373 22.5074 19.5897 23.3746 19.3258 24.3041C19.0619 25.2337 18.9871 26.2067 19.1058 27.1656C19.2245 28.1246 19.5344 29.05 20.017 29.8871C20.4996 30.7243 21.1452 31.4561 21.9156 32.0393C22.6861 32.6226 23.5656 33.0454 24.5023 33.2827C25.439 33.5201 26.4137 33.5672 27.3689 33.4213C28.3241 33.2753 29.2404 32.9393 30.0634 32.433L34.5377 39.7074C32.742 40.812 30.7429 41.5451 28.6589 41.8636C26.5748 42.182 24.448 42.0792 22.4044 41.5614C20.3607 41.0435 18.4417 40.121 16.7608 38.8485C15.0799 37.5759 13.6713 35.9792 12.6183 34.1528C11.5653 32.3263 10.8892 30.3072 10.6302 28.215C10.3712 26.1227 10.5344 23.9997 11.1102 21.9716C11.686 19.9435 12.6627 18.0515 13.9825 16.4075C15.3023 14.7634 16.9384 13.4008 18.7941 12.4001L22.8476 19.9172Z" fill="#F6A400"></path>
<path d="M65.7074 11.6614H61.9744C61.9062 11.1785 61.767 10.7495 61.5568 10.3745C61.3466 9.99383 61.0767 9.66997 60.7472 9.40292C60.4176 9.13588 60.0369 8.93133 59.6051 8.78928C59.179 8.64724 58.7159 8.57622 58.2159 8.57622C57.3125 8.57622 56.5256 8.80065 55.8551 9.24951C55.1847 9.69269 54.6648 10.3404 54.2955 11.1927C53.9261 12.0393 53.7415 13.0677 53.7415 14.2779C53.7415 15.5222 53.9261 16.5677 54.2955 17.4143C54.6705 18.2609 55.1932 18.9001 55.8636 19.3319C56.5341 19.7637 57.3097 19.9796 58.1903 19.9796C58.6847 19.9796 59.142 19.9143 59.5625 19.7836C59.9886 19.6529 60.3665 19.4626 60.696 19.2126C61.0256 18.9569 61.2983 18.6472 61.5142 18.2836C61.7358 17.92 61.8892 17.5052 61.9744 17.0393L65.7074 17.0563C65.6108 17.8575 65.3693 18.6302 64.983 19.3745C64.6023 20.1131 64.0881 20.7751 63.4403 21.3603C62.7983 21.9399 62.0312 22.4001 61.1392 22.741C60.2528 23.0762 59.25 23.2438 58.1307 23.2438C56.5739 23.2438 55.1818 22.8916 53.9545 22.187C52.733 21.4825 51.767 20.4626 51.0568 19.1274C50.3523 17.7921 50 16.1756 50 14.2779C50 12.3745 50.358 10.7552 51.0739 9.41997C51.7898 8.08474 52.7614 7.06769 53.9886 6.36883C55.2159 5.66428 56.5966 5.31201 58.1307 5.31201C59.142 5.31201 60.0795 5.45406 60.9432 5.73815C61.8125 6.02224 62.5824 6.43701 63.2528 6.98247C63.9233 7.52224 64.4688 8.18417 64.8892 8.96826C65.3153 9.75235 65.5881 10.6501 65.7074 11.6614Z" fill="#E52C36"></path>
<path d="M67.1537 23.0052V5.55065H74.0401C75.3639 5.55065 76.4918 5.80349 77.4236 6.30917C78.3554 6.80917 79.0656 7.50519 79.5543 8.39724C80.0486 9.2836 80.2957 10.3063 80.2957 11.4654C80.2957 12.6245 80.0457 13.6472 79.5457 14.5336C79.0457 15.42 78.3213 16.1103 77.3724 16.6046C76.4293 17.0989 75.2872 17.3461 73.9463 17.3461H69.5571V14.3887H73.3497C74.0599 14.3887 74.6452 14.2666 75.1054 14.0222C75.5713 13.7722 75.9179 13.4285 76.1452 12.991C76.3781 12.5478 76.4946 12.0393 76.4946 11.4654C76.4946 10.8859 76.3781 10.3802 76.1452 9.94838C75.9179 9.51088 75.5713 9.17281 75.1054 8.93417C74.6395 8.68985 74.0486 8.56769 73.3327 8.56769H70.844V23.0052H67.1537Z" fill="#E52C36"></path>
<path d="M81.4928 23.0052V5.55065H93.2541V8.59326H85.1831V12.7524H92.649V15.795H85.1831V19.9626H93.2882V23.0052H81.4928Z" fill="#E52C36"></path>
<path d="M94.042 27.2154V20.0649H95.2267C95.6301 19.7751 95.9994 19.366 96.3347 18.8376C96.6699 18.3035 96.9568 17.5677 97.1955 16.6302C97.4341 15.687 97.6045 14.4541 97.7068 12.9313L98.2011 5.55065H109.749V20.0649H111.659V27.1984H108.113V23.0052H97.5875V27.2154H94.042ZM99.4881 20.0649H106.204V8.59326H101.525L101.252 12.9313C101.178 14.0847 101.056 15.1075 100.886 15.9995C100.721 16.8916 100.519 17.6728 100.281 18.3433C100.048 19.008 99.7835 19.5819 99.4881 20.0649Z" fill="#E52C36"></path>
<path d="M112.702 5.55065H116.384V16.5279H116.529L124.071 5.55065H127.302V23.0052H123.611V12.0194H123.483L115.898 23.0052H112.702V5.55065Z" fill="#E52C36"></path>
<path d="M65.7074 35.6614H61.9744C61.9062 35.1785 61.767 34.7495 61.5568 34.3745C61.3466 33.9938 61.0767 33.67 60.7472 33.4029C60.4176 33.1359 60.0369 32.9313 59.6051 32.7893C59.179 32.6472 58.7159 32.5762 58.2159 32.5762C57.3125 32.5762 56.5256 32.8006 55.8551 33.2495C55.1847 33.6927 54.6648 34.3404 54.2955 35.1927C53.9261 36.0393 53.7415 37.0677 53.7415 38.2779C53.7415 39.5222 53.9261 40.5677 54.2955 41.4143C54.6705 42.2609 55.1932 42.9001 55.8636 43.3319C56.5341 43.7637 57.3097 43.9796 58.1903 43.9796C58.6847 43.9796 59.142 43.9143 59.5625 43.7836C59.9886 43.6529 60.3665 43.4626 60.696 43.2126C61.0256 42.9569 61.2983 42.6472 61.5142 42.2836C61.7358 41.92 61.8892 41.5052 61.9744 41.0393L65.7074 41.0563C65.6108 41.8575 65.3693 42.6302 64.983 43.3745C64.6023 44.1131 64.0881 44.7751 63.4403 45.3603C62.7983 45.9398 62.0312 46.4001 61.1392 46.741C60.2528 47.0762 59.25 47.2438 58.1307 47.2438C56.5739 47.2438 55.1818 46.8916 53.9545 46.187C52.733 45.4825 51.767 44.4626 51.0568 43.1274C50.3523 41.7921 50 40.1756 50 38.2779C50 36.3745 50.358 34.7552 51.0739 33.42C51.7898 32.0847 52.7614 31.0677 53.9886 30.3688C55.2159 29.6643 56.5966 29.312 58.1307 29.312C59.142 29.312 60.0795 29.4541 60.9432 29.7381C61.8125 30.0222 62.5824 30.437 63.2528 30.9825C63.9233 31.5222 64.4688 32.1842 64.8892 32.9683C65.3153 33.7524 65.5881 34.6501 65.7074 35.6614Z" fill="#F6A400"></path>
<path d="M67.1537 47.0052V29.5506H74.1423C75.4264 29.5506 76.4974 29.741 77.3554 30.1217C78.2134 30.5024 78.8582 31.0308 79.2901 31.7069C79.7219 32.3774 79.9378 33.1501 79.9378 34.0251C79.9378 34.7069 79.8014 35.3063 79.5287 35.8234C79.256 36.3347 78.881 36.7552 78.4037 37.0847C77.9321 37.4086 77.3923 37.6387 76.7844 37.7751V37.9455C77.4491 37.9739 78.0713 38.1614 78.6509 38.508C79.2361 38.8546 79.7105 39.3404 80.0741 39.9654C80.4378 40.5847 80.6196 41.3234 80.6196 42.1813C80.6196 43.1075 80.3895 43.9342 79.9293 44.6614C79.4747 45.383 78.8014 45.9541 77.9094 46.3745C77.0173 46.795 75.9179 47.0052 74.6111 47.0052H67.1537ZM70.844 43.9881H73.8526C74.881 43.9881 75.631 43.7921 76.1026 43.4001C76.5741 43.0024 76.8099 42.4739 76.8099 41.8149C76.8099 41.3319 76.6935 40.9058 76.4605 40.5364C76.2276 40.1671 75.8952 39.8774 75.4634 39.6671C75.0372 39.4569 74.5287 39.3518 73.9378 39.3518H70.844V43.9881ZM70.844 36.8546H73.5798C74.0855 36.8546 74.5344 36.7666 74.9264 36.5904C75.3241 36.4086 75.6366 36.1529 75.8639 35.8234C76.0969 35.4938 76.2134 35.0989 76.2134 34.6387C76.2134 34.008 75.9889 33.4995 75.5401 33.1131C75.0969 32.7268 74.4662 32.5336 73.648 32.5336H70.844V36.8546Z" fill="#F6A400"></path>
<path d="M97.8607 38.2779C97.8607 40.1813 97.4999 41.8006 96.7783 43.1359C96.0624 44.4711 95.0851 45.491 93.8465 46.1955C92.6135 46.8944 91.2271 47.2438 89.6874 47.2438C88.1362 47.2438 86.7442 46.8916 85.5112 46.187C84.2783 45.4825 83.3038 44.4626 82.5879 43.1274C81.872 41.7921 81.5141 40.1756 81.5141 38.2779C81.5141 36.3745 81.872 34.7552 82.5879 33.42C83.3038 32.0847 84.2783 31.0677 85.5112 30.3688C86.7442 29.6643 88.1362 29.312 89.6874 29.312C91.2271 29.312 92.6135 29.6643 93.8465 30.3688C95.0851 31.0677 96.0624 32.0847 96.7783 33.42C97.4999 34.7552 97.8607 36.3745 97.8607 38.2779ZM94.1192 38.2779C94.1192 37.045 93.9345 36.0052 93.5652 35.1586C93.2016 34.312 92.6874 33.67 92.0226 33.2325C91.3578 32.795 90.5794 32.5762 89.6874 32.5762C88.7953 32.5762 88.0169 32.795 87.3521 33.2325C86.6874 33.67 86.1703 34.312 85.801 35.1586C85.4374 36.0052 85.2555 37.045 85.2555 38.2779C85.2555 39.5109 85.4374 40.5506 85.801 41.3972C86.1703 42.2438 86.6874 42.8859 87.3521 43.3234C88.0169 43.7609 88.7953 43.9796 89.6874 43.9796C90.5794 43.9796 91.3578 43.7609 92.0226 43.3234C92.6874 42.8859 93.2016 42.2438 93.5652 41.3972C93.9345 40.5506 94.1192 39.5109 94.1192 38.2779Z" fill="#F6A400"></path>
<path d="M99.3943 29.5506H103.076V40.5279H103.221L110.764 29.5506H113.994V47.0052H110.303V36.0194H110.176L102.59 47.0052H99.3943V29.5506Z" fill="#F6A400"></path>
<path d="M119.303 29.5506L122.823 35.4995H122.959L126.496 29.5506H130.664L125.337 38.2779L130.783 47.0052H126.539L122.959 41.0478H122.823L119.243 47.0052H115.016L120.479 38.2779L115.118 29.5506H119.303Z" fill="#F6A400"></path>
</svg>
